# xmcd
#
# Track frame offsets:
#	150
#	17384
#	28626
#	40808
#	53864
#	62653
#	75139
#	83427
#	96538
#	109116
#	119214
#	126878
#	134739
#	143979
#	153389
#	163601
#	171701
#	184558
#	194765
#	205959
#	220932
#	234089
#	246795
#	263150
#	279665
#
# Disc length: 3907 seconds
#
# Revision: 0
# Processed by: cddbd v1.5.2PL0 Copyright (c) Steve Scherf et al.
# Submitted via: EZCDAudioConverter 2.1.7.1
#
DISCID=6a0f4119
DTITLE=V/A - Here Today! The Songs Of Brian Wilson
DYEAR=1900
DGENRE=
TTITLE0=Darian Sahanaja - Do You Have Any Regrets?
TTITLE1=Bobby Vee - Here Today
TTITLE2=Johnny Wells - Guess I'm Dumb
TTITLE3=The Tokens - Don't Worry Baby
TTITLE4=Basil Swift and The Seegrams - Farmer's Daughter
TTITLE5=Bruce and Terry - Help Me Rhonda
TTITLE6=The Castells - I Do
TTITLE7=Jan and Dean - The New Girl In School
TTITLE8=Redwood - Time To Get Alone
TTITLE9=The Surfaris - Don't Hurt My Little Sister
TTITLE10=The Hondells - My Buddy Seat
TTITLE11=Rally-Packs - Move Out, Little Mustang
TTITLE12=Joey and The Continentals - She Rides With Me
TTITLE13=Tony Rivers and The Castaways - The Girl From New York City
TTITLE14=The Tymes - Surf City
TTITLE15=Super Stocks - My First Love
TTITLE16=Jay and The Americans - Things Are Changing
TTITLE17=Keith Green - Girl Don't Tell Me
TTITLE18=Peggy March - Aren't You Glad
TTITLE19=Betty Everett - God Only Knows
TTITLE20=Carmen McRae - Don't Talk (Put Your Head On My Shoulder)
TTITLE21=Hugo Montenegro - Good Vibrations
TTITLE22=Nick DeCaro - Caroline, No
TTITLE23=Louis Philippe with Dean Brodrick - I Just Wasn't Made For These Time
TTITLE23=s
TTITLE24=Kirsty MacColl - You Still Believe In Me
EXTD=
EXTT0=
EXTT1=
EXTT2=
EXTT3=
EXTT4=
EXTT5=
EXTT6=
EXTT7=
EXTT8=
EXTT9=
EXTT10=
EXTT11=
EXTT12=
EXTT13=
EXTT14=
EXTT15=
EXTT16=
EXTT17=
EXTT18=
EXTT19=
EXTT20=
EXTT21=
EXTT22=
EXTT23=
EXTT24=
PLAYORDER=
